<svg width="134" height="192" viewBox="0 0 134 192" fill="none" xmlns="http://www.w3.org/2000/svg">
<g filter="url(#filter0_dd_1943_4464)">
<path d="M51.8872 20H21.5973C20.7169 20 20.0049 20.7174 20.0107 21.6018C20.1167 37.6341 20.3075 71.9337 20.3169 95.3552C20.3173 96.3058 21.1662 97.0347 22.1084 96.9459C65.5872 92.8496 78.5959 121.666 79.8794 138.147C79.946 139.003 80.6435 139.681 81.4977 139.681H112.434C113.331 139.681 114.052 138.942 113.997 138.042C113.13 123.703 106.797 95.1347 87.2941 81.1301C86.4268 80.5073 86.3482 79.2153 87.1455 78.5042C110.043 58.0817 114.269 33.3945 113.46 21.7982C113.393 20.8378 112.47 20 111.512 20H81.4888C80.649 20 79.9305 20.6641 79.8565 21.5044C78.0179 42.3927 64.1069 54.2655 55.5965 58.5583C54.5949 59.0635 53.4736 58.2996 53.4736 57.1737V21.5936C53.4736 20.7135 52.7633 20 51.8872 20Z" fill="url(#paint0_linear_1943_4464)"/>
<path d="M51.8872 20H21.5973C20.7169 20 20.0049 20.7174 20.0107 21.6018C20.1167 37.6341 20.3075 71.9337 20.3169 95.3552C20.3173 96.3058 21.1662 97.0347 22.1084 96.9459C65.5872 92.8496 78.5959 121.666 79.8794 138.147C79.946 139.003 80.6435 139.681 81.4977 139.681H112.434C113.331 139.681 114.052 138.942 113.997 138.042C113.13 123.703 106.797 95.1347 87.2941 81.1301C86.4268 80.5073 86.3482 79.2153 87.1455 78.5042C110.043 58.0817 114.269 33.3945 113.46 21.7982C113.393 20.8378 112.47 20 111.512 20H81.4888C80.649 20 79.9305 20.6641 79.8565 21.5044C78.0179 42.3927 64.1069 54.2655 55.5965 58.5583C54.5949 59.0635 53.4736 58.2996 53.4736 57.1737V21.5936C53.4736 20.7135 52.7633 20 51.8872 20Z" fill="url(#paint1_linear_1943_4464)"/>
<path fill-rule="evenodd" clip-rule="evenodd" d="M31.105 115.936C45.1165 115.936 56.7704 126.074 59.1963 139.445C59.2488 139.735 59.0253 140 58.7321 140H55.8964C55.6684 140 55.4729 139.837 55.4256 139.613C54.2883 134.221 51.2824 129.749 48.9885 127.272C48.5374 126.785 47.8186 126.669 47.271 127.043C44.0062 129.273 40.9573 134.577 41.527 139.435C41.5616 139.731 41.338 140 41.0416 140H37.4089C37.2601 140 37.1206 139.929 37.027 139.813C35.631 138.08 33.497 136.972 31.105 136.972C28.7129 136.972 26.5789 138.08 25.1829 139.813C25.0893 139.929 24.9498 140 24.801 140H21.7451C20.7813 140 20 139.215 20 138.247V127.907C20 127.405 20.7381 127.205 21.0269 127.615C25.3228 133.717 35.4211 138.4 41.9773 124.351C42.3055 123.647 42.0517 122.794 41.3721 122.424C33.4904 118.124 24.485 120.458 20.0245 122.602C20.0132 122.608 20 122.6 20 122.587V118.503C20 118.311 20.1144 118.137 20.2914 118.064C23.6267 116.692 27.2779 115.936 31.105 115.936ZM24.6006 134.422C23.8121 134.422 23.1729 135.064 23.1729 135.857C23.1729 136.649 23.8121 137.291 24.6006 137.291C25.3891 137.291 26.0284 136.649 26.0284 135.857C26.0284 135.065 25.3891 134.422 24.6006 134.422ZM37.6093 134.422C36.8208 134.422 36.1816 135.064 36.1815 135.857C36.1816 136.649 36.8208 137.291 37.6093 137.291C38.3978 137.291 39.0371 136.649 39.0371 135.857C39.0371 135.065 38.3978 134.422 37.6093 134.422Z" fill="url(#paint2_linear_1943_4464)"/>
<path fill-rule="evenodd" clip-rule="evenodd" d="M31.105 115.936C45.1165 115.936 56.7704 126.074 59.1963 139.445C59.2488 139.735 59.0253 140 58.7321 140H55.8964C55.6684 140 55.4729 139.837 55.4256 139.613C54.2883 134.221 51.2824 129.749 48.9885 127.272C48.5374 126.785 47.8186 126.669 47.271 127.043C44.0062 129.273 40.9573 134.577 41.527 139.435C41.5616 139.731 41.338 140 41.0416 140H37.4089C37.2601 140 37.1206 139.929 37.027 139.813C35.631 138.08 33.497 136.972 31.105 136.972C28.7129 136.972 26.5789 138.08 25.1829 139.813C25.0893 139.929 24.9498 140 24.801 140H21.7451C20.7813 140 20 139.215 20 138.247V127.907C20 127.405 20.7381 127.205 21.0269 127.615C25.3228 133.717 35.4211 138.4 41.9773 124.351C42.3055 123.647 42.0517 122.794 41.3721 122.424C33.4904 118.124 24.485 120.458 20.0245 122.602C20.0132 122.608 20 122.6 20 122.587V118.503C20 118.311 20.1144 118.137 20.2914 118.064C23.6267 116.692 27.2779 115.936 31.105 115.936ZM24.6006 134.422C23.8121 134.422 23.1729 135.064 23.1729 135.857C23.1729 136.649 23.8121 137.291 24.6006 137.291C25.3891 137.291 26.0284 136.649 26.0284 135.857C26.0284 135.065 25.3891 134.422 24.6006 134.422ZM37.6093 134.422C36.8208 134.422 36.1816 135.064 36.1815 135.857C36.1816 136.649 36.8208 137.291 37.6093 137.291C38.3978 137.291 39.0371 136.649 39.0371 135.857C39.0371 135.065 38.3978 134.422 37.6093 134.422Z" fill="url(#paint3_linear_1943_4464)"/>
<path d="M34.9236 101.912C35.6509 101.912 36.3019 102.366 36.5574 103.05L37.0432 104.351C37.4421 105.419 38.8627 105.615 39.5329 104.693L40.1256 103.878C40.5753 103.26 41.3725 103.007 42.0944 103.252L49.7501 105.857C50.4586 106.098 50.9353 106.766 50.9353 107.517V108.537C50.9353 109.612 52.0687 110.305 53.019 109.811L54.3377 109.126C54.9785 108.793 55.7571 108.89 56.2969 109.371L61.7227 114.202C62.2209 114.646 62.4245 115.335 62.2476 115.98L61.8568 117.403C61.5901 118.374 62.3771 119.312 63.3751 119.212L64.8187 119.067C65.4977 118.999 66.1541 119.334 66.4987 119.926L70.3554 126.549C70.7183 127.173 70.6635 127.956 70.2172 128.522L69.4599 129.483C68.8031 130.316 69.2457 131.553 70.2804 131.776L71.2214 131.978C71.8941 132.123 72.4192 132.652 72.5624 133.328L73.5273 137.882C73.7583 138.973 72.9303 140 71.8203 140H62.9137C62.6773 140 62.477 139.824 62.4399 139.59C60.0384 124.378 46.9238 112.749 31.105 112.749C27.4399 112.749 23.9202 113.374 20.6451 114.522C20.3316 114.632 20 114.401 20 114.067V104.029C20 103.754 20.1086 103.49 20.3021 103.296C20.7396 102.856 21.461 102.9 21.8433 103.388L22.863 104.692C23.5731 105.599 25.0054 105.335 25.3483 104.233L25.6879 103.142C25.9156 102.411 26.5901 101.912 27.3533 101.912H34.9236Z" fill="url(#paint4_linear_1943_4464)"/>
<path d="M34.9236 101.912C35.6509 101.912 36.3019 102.366 36.5574 103.05L37.0432 104.351C37.4421 105.419 38.8627 105.615 39.5329 104.693L40.1256 103.878C40.5753 103.26 41.3725 103.007 42.0944 103.252L49.7501 105.857C50.4586 106.098 50.9353 106.766 50.9353 107.517V108.537C50.9353 109.612 52.0687 110.305 53.019 109.811L54.3377 109.126C54.9785 108.793 55.7571 108.89 56.2969 109.371L61.7227 114.202C62.2209 114.646 62.4245 115.335 62.2476 115.98L61.8568 117.403C61.5901 118.374 62.3771 119.312 63.3751 119.212L64.8187 119.067C65.4977 118.999 66.1541 119.334 66.4987 119.926L70.3554 126.549C70.7183 127.173 70.6635 127.956 70.2172 128.522L69.4599 129.483C68.8031 130.316 69.2457 131.553 70.2804 131.776L71.2214 131.978C71.8941 132.123 72.4192 132.652 72.5624 133.328L73.5273 137.882C73.7583 138.973 72.9303 140 71.8203 140H62.9137C62.6773 140 62.477 139.824 62.4399 139.59C60.0384 124.378 46.9238 112.749 31.105 112.749C27.4399 112.749 23.9202 113.374 20.6451 114.522C20.3316 114.632 20 114.401 20 114.067V104.029C20 103.754 20.1086 103.49 20.3021 103.296C20.7396 102.856 21.461 102.9 21.8433 103.388L22.863 104.692C23.5731 105.599 25.0054 105.335 25.3483 104.233L25.6879 103.142C25.9156 102.411 26.5901 101.912 27.3533 101.912H34.9236Z" fill="url(#paint5_linear_1943_4464)"/>
<path d="M31.105 138.566C32.1251 138.566 33.0859 138.82 33.9281 139.27C34.3194 139.479 34.1456 140 33.7024 140H28.5075C28.0644 140 27.8905 139.479 28.2819 139.27C29.124 138.82 30.0848 138.566 31.105 138.566Z" fill="url(#paint6_linear_1943_4464)"/>
<path d="M31.105 138.566C32.1251 138.566 33.0859 138.82 33.9281 139.27C34.3194 139.479 34.1456 140 33.7024 140H28.5075C28.0644 140 27.8905 139.479 28.2819 139.27C29.124 138.82 30.0848 138.566 31.105 138.566Z" fill="url(#paint7_linear_1943_4464)"/>
</g>
<g filter="url(#filter1_dd_1943_4464)">
<path d="M21.7116 167.006C21.1594 167.006 20.7362 166.858 20.4417 166.562C20.1472 166.247 20 165.803 20 165.23V148.748C20 148.175 20.1472 147.74 20.4417 147.444C20.7362 147.148 21.1594 147 21.7116 147C22.2637 147 22.687 147.148 22.9814 147.444C23.2943 147.74 23.4507 148.175 23.4507 148.748V158.987H23.5059L28.0609 154.159C28.429 153.789 28.751 153.502 29.0271 153.299C29.3032 153.095 29.6804 152.993 30.1589 152.993C30.6374 152.993 30.9963 153.123 31.2356 153.382C31.4932 153.622 31.6221 153.918 31.6221 154.27C31.6221 154.621 31.4564 154.973 31.1251 155.324L26.3217 160.43V158.987L31.5944 164.703C31.9257 165.054 32.0729 165.415 32.0361 165.785C32.0177 166.136 31.8705 166.432 31.5944 166.673C31.3184 166.895 30.9687 167.006 30.5454 167.006C30.0301 167.006 29.616 166.904 29.3032 166.7C29.0087 166.497 28.6774 166.192 28.3094 165.785L23.5059 160.735H23.4507V165.23C23.4507 166.414 22.871 167.006 21.7116 167.006Z" fill="#F4D7F0"/>
<path d="M21.7116 167.006C21.1594 167.006 20.7362 166.858 20.4417 166.562C20.1472 166.247 20 165.803 20 165.23V148.748C20 148.175 20.1472 147.74 20.4417 147.444C20.7362 147.148 21.1594 147 21.7116 147C22.2637 147 22.687 147.148 22.9814 147.444C23.2943 147.74 23.4507 148.175 23.4507 148.748V158.987H23.5059L28.0609 154.159C28.429 153.789 28.751 153.502 29.0271 153.299C29.3032 153.095 29.6804 152.993 30.1589 152.993C30.6374 152.993 30.9963 153.123 31.2356 153.382C31.4932 153.622 31.6221 153.918 31.6221 154.27C31.6221 154.621 31.4564 154.973 31.1251 155.324L26.3217 160.43V158.987L31.5944 164.703C31.9257 165.054 32.0729 165.415 32.0361 165.785C32.0177 166.136 31.8705 166.432 31.5944 166.673C31.3184 166.895 30.9687 167.006 30.5454 167.006C30.0301 167.006 29.616 166.904 29.3032 166.7C29.0087 166.497 28.6774 166.192 28.3094 165.785L23.5059 160.735H23.4507V165.23C23.4507 166.414 22.871 167.006 21.7116 167.006Z" fill="url(#paint8_linear_1943_4464)"/>
<path d="M40.6869 167.061C39.2882 167.061 38.0735 166.774 37.0429 166.201C36.0123 165.627 35.2117 164.814 34.6412 163.759C34.0707 162.686 33.7854 161.428 33.7854 159.986C33.7854 158.894 33.9419 157.923 34.2547 157.072C34.586 156.203 35.0553 155.463 35.6626 154.852C36.27 154.223 36.9969 153.752 37.8435 153.437C38.6901 153.104 39.6379 152.938 40.6869 152.938C42.0856 152.938 43.3003 153.225 44.3309 153.798C45.3615 154.371 46.1621 155.185 46.7326 156.24C47.3031 157.294 47.5884 158.543 47.5884 159.986C47.5884 161.077 47.4227 162.057 47.0915 162.927C46.7786 163.796 46.3185 164.545 45.7112 165.174C45.1038 165.785 44.3769 166.256 43.5303 166.589C42.6837 166.904 41.7359 167.061 40.6869 167.061ZM40.6869 164.425C41.3678 164.425 41.966 164.259 42.4813 163.926C42.9966 163.593 43.3923 163.102 43.6683 162.455C43.9628 161.789 44.11 160.966 44.11 159.986C44.11 158.506 43.7972 157.405 43.1714 156.684C42.5457 155.944 41.7175 155.574 40.6869 155.574C40.006 155.574 39.4078 155.74 38.8925 156.073C38.3772 156.388 37.9723 156.878 37.6779 157.544C37.4018 158.191 37.2638 159.005 37.2638 159.986C37.2638 161.447 37.5766 162.557 38.2024 163.315C38.8281 164.055 39.6563 164.425 40.6869 164.425Z" fill="#F4D7F0"/>
<path d="M40.6869 167.061C39.2882 167.061 38.0735 166.774 37.0429 166.201C36.0123 165.627 35.2117 164.814 34.6412 163.759C34.0707 162.686 33.7854 161.428 33.7854 159.986C33.7854 158.894 33.9419 157.923 34.2547 157.072C34.586 156.203 35.0553 155.463 35.6626 154.852C36.27 154.223 36.9969 153.752 37.8435 153.437C38.6901 153.104 39.6379 152.938 40.6869 152.938C42.0856 152.938 43.3003 153.225 44.3309 153.798C45.3615 154.371 46.1621 155.185 46.7326 156.24C47.3031 157.294 47.5884 158.543 47.5884 159.986C47.5884 161.077 47.4227 162.057 47.0915 162.927C46.7786 163.796 46.3185 164.545 45.7112 165.174C45.1038 165.785 44.3769 166.256 43.5303 166.589C42.6837 166.904 41.7359 167.061 40.6869 167.061ZM40.6869 164.425C41.3678 164.425 41.966 164.259 42.4813 163.926C42.9966 163.593 43.3923 163.102 43.6683 162.455C43.9628 161.789 44.11 160.966 44.11 159.986C44.11 158.506 43.7972 157.405 43.1714 156.684C42.5457 155.944 41.7175 155.574 40.6869 155.574C40.006 155.574 39.4078 155.74 38.8925 156.073C38.3772 156.388 37.9723 156.878 37.6779 157.544C37.4018 158.191 37.2638 159.005 37.2638 159.986C37.2638 161.447 37.5766 162.557 38.2024 163.315C38.8281 164.055 39.6563 164.425 40.6869 164.425Z" fill="url(#paint9_linear_1943_4464)"/>
<path d="M52.2033 167.006C51.6512 167.006 51.2279 166.858 50.9334 166.562C50.6389 166.247 50.4917 165.803 50.4917 165.23V154.741C50.4917 154.168 50.6389 153.733 50.9334 153.437C51.2279 153.141 51.642 152.993 52.1757 152.993C52.7094 152.993 53.1235 153.141 53.4179 153.437C53.7124 153.733 53.8596 154.168 53.8596 154.741V156.767L53.556 155.935C53.924 155.01 54.4946 154.279 55.2675 153.743C56.0405 153.206 56.9607 152.938 58.0281 152.938C59.1139 152.938 60.0065 153.197 60.7059 153.715C61.4052 154.233 61.8929 155.028 62.169 156.101H61.7825C62.1506 155.121 62.7579 154.353 63.6045 153.798C64.4511 153.225 65.4265 152.938 66.5307 152.938C67.5613 152.938 68.4079 153.141 69.0704 153.548C69.7514 153.955 70.2575 154.575 70.5888 155.407C70.92 156.221 71.0857 157.257 71.0857 158.515V165.23C71.0857 165.803 70.9292 166.247 70.6164 166.562C70.3219 166.858 69.8986 167.006 69.3465 167.006C68.7944 167.006 68.3711 166.858 68.0766 166.562C67.7822 166.247 67.6349 165.803 67.6349 165.23V158.654C67.6349 157.618 67.4601 156.859 67.1104 156.378C66.7792 155.898 66.2086 155.657 65.3989 155.657C64.4971 155.657 63.7885 155.981 63.2732 156.628C62.7579 157.257 62.5003 158.136 62.5003 159.264V165.23C62.5003 165.803 62.353 166.247 62.0586 166.562C61.7641 166.858 61.3408 167.006 60.7887 167.006C60.2366 167.006 59.8041 166.858 59.4912 166.562C59.1968 166.247 59.0495 165.803 59.0495 165.23V158.654C59.0495 157.618 58.8747 156.859 58.525 156.378C58.1937 155.898 57.6324 155.657 56.8411 155.657C55.9393 155.657 55.2307 155.981 54.7154 156.628C54.2001 157.257 53.9424 158.136 53.9424 159.264V165.23C53.9424 166.414 53.3627 167.006 52.2033 167.006Z" fill="#F4D7F0"/>
<path d="M52.2033 167.006C51.6512 167.006 51.2279 166.858 50.9334 166.562C50.6389 166.247 50.4917 165.803 50.4917 165.23V154.741C50.4917 154.168 50.6389 153.733 50.9334 153.437C51.2279 153.141 51.642 152.993 52.1757 152.993C52.7094 152.993 53.1235 153.141 53.4179 153.437C53.7124 153.733 53.8596 154.168 53.8596 154.741V156.767L53.556 155.935C53.924 155.01 54.4946 154.279 55.2675 153.743C56.0405 153.206 56.9607 152.938 58.0281 152.938C59.1139 152.938 60.0065 153.197 60.7059 153.715C61.4052 154.233 61.8929 155.028 62.169 156.101H61.7825C62.1506 155.121 62.7579 154.353 63.6045 153.798C64.4511 153.225 65.4265 152.938 66.5307 152.938C67.5613 152.938 68.4079 153.141 69.0704 153.548C69.7514 153.955 70.2575 154.575 70.5888 155.407C70.92 156.221 71.0857 157.257 71.0857 158.515V165.23C71.0857 165.803 70.9292 166.247 70.6164 166.562C70.3219 166.858 69.8986 167.006 69.3465 167.006C68.7944 167.006 68.3711 166.858 68.0766 166.562C67.7822 166.247 67.6349 165.803 67.6349 165.23V158.654C67.6349 157.618 67.4601 156.859 67.1104 156.378C66.7792 155.898 66.2086 155.657 65.3989 155.657C64.4971 155.657 63.7885 155.981 63.2732 156.628C62.7579 157.257 62.5003 158.136 62.5003 159.264V165.23C62.5003 165.803 62.353 166.247 62.0586 166.562C61.7641 166.858 61.3408 167.006 60.7887 167.006C60.2366 167.006 59.8041 166.858 59.4912 166.562C59.1968 166.247 59.0495 165.803 59.0495 165.23V158.654C59.0495 157.618 58.8747 156.859 58.525 156.378C58.1937 155.898 57.6324 155.657 56.8411 155.657C55.9393 155.657 55.2307 155.981 54.7154 156.628C54.2001 157.257 53.9424 158.136 53.9424 159.264V165.23C53.9424 166.414 53.3627 167.006 52.2033 167.006Z" fill="url(#paint10_linear_1943_4464)"/>
<path d="M77.9338 172C77.529 172 77.1977 171.889 76.94 171.667C76.6824 171.464 76.526 171.186 76.4707 170.835C76.4339 170.483 76.4983 170.113 76.664 169.725L78.5412 165.535V166.978L73.5169 155.296C73.3513 154.889 73.2961 154.51 73.3513 154.159C73.4065 153.807 73.5721 153.53 73.8482 153.326C74.1426 153.104 74.5383 152.993 75.0352 152.993C75.4585 152.993 75.799 153.095 76.0566 153.299C76.3143 153.484 76.5444 153.844 76.7468 154.381L80.4736 163.731H79.6454L83.455 154.353C83.6575 153.835 83.8967 153.484 84.1728 153.299C84.4488 153.095 84.8169 152.993 85.277 152.993C85.6819 152.993 86.0039 153.104 86.2432 153.326C86.4825 153.53 86.6297 153.807 86.6849 154.159C86.7401 154.492 86.6757 154.862 86.4917 155.269L79.7834 170.668C79.5442 171.186 79.2865 171.538 79.0105 171.723C78.7344 171.908 78.3755 172 77.9338 172Z" fill="#F4D7F0"/>
<path d="M77.9338 172C77.529 172 77.1977 171.889 76.94 171.667C76.6824 171.464 76.526 171.186 76.4707 170.835C76.4339 170.483 76.4983 170.113 76.664 169.725L78.5412 165.535V166.978L73.5169 155.296C73.3513 154.889 73.2961 154.51 73.3513 154.159C73.4065 153.807 73.5721 153.53 73.8482 153.326C74.1426 153.104 74.5383 152.993 75.0352 152.993C75.4585 152.993 75.799 153.095 76.0566 153.299C76.3143 153.484 76.5444 153.844 76.7468 154.381L80.4736 163.731H79.6454L83.455 154.353C83.6575 153.835 83.8967 153.484 84.1728 153.299C84.4488 153.095 84.8169 152.993 85.277 152.993C85.6819 152.993 86.0039 153.104 86.2432 153.326C86.4825 153.53 86.6297 153.807 86.6849 154.159C86.7401 154.492 86.6757 154.862 86.4917 155.269L79.7834 170.668C79.5442 171.186 79.2865 171.538 79.0105 171.723C78.7344 171.908 78.3755 172 77.9338 172Z" fill="url(#paint11_linear_1943_4464)"/>
<path d="M93.9278 167.061C92.8051 167.061 91.8757 166.858 91.1396 166.451C90.4034 166.025 89.8513 165.396 89.4832 164.564C89.1335 163.731 88.9587 162.696 88.9587 161.456V154.741C88.9587 154.149 89.1059 153.715 89.4004 153.437C89.6949 153.141 90.1181 152.993 90.6703 152.993C91.2224 152.993 91.6457 153.141 91.9401 153.437C92.253 153.715 92.4094 154.149 92.4094 154.741V161.512C92.4094 162.474 92.6027 163.186 92.9892 163.648C93.3756 164.111 93.9922 164.342 94.8387 164.342C95.7589 164.342 96.5135 164.027 97.1024 163.398C97.6914 162.751 97.9858 161.9 97.9858 160.846V154.741C97.9858 154.149 98.133 153.715 98.4275 153.437C98.722 153.141 99.1453 152.993 99.6974 152.993C100.249 152.993 100.673 153.141 100.967 153.437C101.28 153.715 101.437 154.149 101.437 154.741V165.23C101.437 166.414 100.875 167.006 99.7526 167.006C99.2189 167.006 98.8048 166.858 98.5103 166.562C98.2159 166.247 98.0686 165.803 98.0686 165.23V163.121L98.4551 163.953C98.0686 164.952 97.4797 165.72 96.6883 166.256C95.9154 166.793 94.9952 167.061 93.9278 167.061Z" fill="#F4D7F0"/>
<path d="M93.9278 167.061C92.8051 167.061 91.8757 166.858 91.1396 166.451C90.4034 166.025 89.8513 165.396 89.4832 164.564C89.1335 163.731 88.9587 162.696 88.9587 161.456V154.741C88.9587 154.149 89.1059 153.715 89.4004 153.437C89.6949 153.141 90.1181 152.993 90.6703 152.993C91.2224 152.993 91.6457 153.141 91.9401 153.437C92.253 153.715 92.4094 154.149 92.4094 154.741V161.512C92.4094 162.474 92.6027 163.186 92.9892 163.648C93.3756 164.111 93.9922 164.342 94.8387 164.342C95.7589 164.342 96.5135 164.027 97.1024 163.398C97.6914 162.751 97.9858 161.9 97.9858 160.846V154.741C97.9858 154.149 98.133 153.715 98.4275 153.437C98.722 153.141 99.1453 152.993 99.6974 152.993C100.249 152.993 100.673 153.141 100.967 153.437C101.28 153.715 101.437 154.149 101.437 154.741V165.23C101.437 166.414 100.875 167.006 99.7526 167.006C99.2189 167.006 98.8048 166.858 98.5103 166.562C98.2159 166.247 98.0686 165.803 98.0686 165.23V163.121L98.4551 163.953C98.0686 164.952 97.4797 165.72 96.6883 166.256C95.9154 166.793 94.9952 167.061 93.9278 167.061Z" fill="url(#paint12_linear_1943_4464)"/>
<path d="M111.212 167.061C110.016 167.061 109.013 166.858 108.203 166.451C107.411 166.044 106.822 165.452 106.436 164.675C106.05 163.879 105.856 162.899 105.856 161.734V155.824H104.421C103.979 155.824 103.639 155.713 103.399 155.491C103.16 155.25 103.04 154.926 103.04 154.519C103.04 154.094 103.16 153.77 103.399 153.548C103.639 153.326 103.979 153.215 104.421 153.215H105.856V150.69C105.856 150.117 106.004 149.682 106.298 149.386C106.611 149.09 107.043 148.942 107.595 148.942C108.148 148.942 108.571 149.09 108.865 149.386C109.16 149.682 109.307 150.117 109.307 150.69V153.215H112.233C112.675 153.215 113.015 153.326 113.255 153.548C113.494 153.77 113.614 154.094 113.614 154.519C113.614 154.926 113.494 155.25 113.255 155.491C113.015 155.713 112.675 155.824 112.233 155.824H109.307V161.539C109.307 162.427 109.5 163.093 109.887 163.537C110.273 163.981 110.899 164.203 111.764 164.203C112.077 164.203 112.353 164.175 112.592 164.12C112.831 164.064 113.043 164.027 113.227 164.009C113.448 163.99 113.632 164.064 113.779 164.231C113.926 164.379 114 164.693 114 165.174C114 165.544 113.936 165.877 113.807 166.173C113.696 166.451 113.485 166.645 113.172 166.756C112.933 166.83 112.62 166.895 112.233 166.95C111.847 167.024 111.506 167.061 111.212 167.061Z" fill="#F4D7F0"/>
<path d="M111.212 167.061C110.016 167.061 109.013 166.858 108.203 166.451C107.411 166.044 106.822 165.452 106.436 164.675C106.05 163.879 105.856 162.899 105.856 161.734V155.824H104.421C103.979 155.824 103.639 155.713 103.399 155.491C103.16 155.25 103.04 154.926 103.04 154.519C103.04 154.094 103.16 153.77 103.399 153.548C103.639 153.326 103.979 153.215 104.421 153.215H105.856V150.69C105.856 150.117 106.004 149.682 106.298 149.386C106.611 149.09 107.043 148.942 107.595 148.942C108.148 148.942 108.571 149.09 108.865 149.386C109.16 149.682 109.307 150.117 109.307 150.69V153.215H112.233C112.675 153.215 113.015 153.326 113.255 153.548C113.494 153.77 113.614 154.094 113.614 154.519C113.614 154.926 113.494 155.25 113.255 155.491C113.015 155.713 112.675 155.824 112.233 155.824H109.307V161.539C109.307 162.427 109.5 163.093 109.887 163.537C110.273 163.981 110.899 164.203 111.764 164.203C112.077 164.203 112.353 164.175 112.592 164.12C112.831 164.064 113.043 164.027 113.227 164.009C113.448 163.99 113.632 164.064 113.779 164.231C113.926 164.379 114 164.693 114 165.174C114 165.544 113.936 165.877 113.807 166.173C113.696 166.451 113.485 166.645 113.172 166.756C112.933 166.83 112.62 166.895 112.233 166.95C111.847 167.024 111.506 167.061 111.212 167.061Z" fill="url(#paint13_linear_1943_4464)"/>
</g>
<defs>
<filter id="filter0_dd_1943_4464" x="0" y="0" width="134" height="160" filterUnits="userSpaceOnUse" color-interpolation-filters="sRGB">
<feFlood flood-opacity="0" result="BackgroundImageFix"/>
<feColorMatrix in="SourceAlpha" type="matrix" values="0 0 0 0 0 0 0 0 0 0 0 0 0 0 0 0 0 0 127 0" result="hardAlpha"/>
<feOffset/>
<feGaussianBlur stdDeviation="10"/>
<feComposite in2="hardAlpha" operator="out"/>
<feColorMatrix type="matrix" values="0 0 0 0 0.556863 0 0 0 0 0.298039 0 0 0 0 0.713726 0 0 0 0.25 0"/>
<feBlend mode="normal" in2="BackgroundImageFix" result="effect1_dropShadow_1943_4464"/>
<feColorMatrix in="SourceAlpha" type="matrix" values="0 0 0 0 0 0 0 0 0 0 0 0 0 0 0 0 0 0 127 0" result="hardAlpha"/>
<feOffset dx="1" dy="1"/>
<feGaussianBlur stdDeviation="0.5"/>
<feComposite in2="hardAlpha" operator="out"/>
<feColorMatrix type="matrix" values="0 0 0 0 0.556863 0 0 0 0 0.298039 0 0 0 0 0.713726 0 0 0 0.5 0"/>
<feBlend mode="normal" in2="effect1_dropShadow_1943_4464" result="effect2_dropShadow_1943_4464"/>
<feBlend mode="normal" in="SourceGraphic" in2="effect2_dropShadow_1943_4464" result="shape"/>
</filter>
<filter id="filter1_dd_1943_4464" x="0" y="127" width="134" height="65" filterUnits="userSpaceOnUse" color-interpolation-filters="sRGB">
<feFlood flood-opacity="0" result="BackgroundImageFix"/>
<feColorMatrix in="SourceAlpha" type="matrix" values="0 0 0 0 0 0 0 0 0 0 0 0 0 0 0 0 0 0 127 0" result="hardAlpha"/>
<feOffset/>
<feGaussianBlur stdDeviation="10"/>
<feComposite in2="hardAlpha" operator="out"/>
<feColorMatrix type="matrix" values="0 0 0 0 0.556863 0 0 0 0 0.298039 0 0 0 0 0.713726 0 0 0 0.25 0"/>
<feBlend mode="normal" in2="BackgroundImageFix" result="effect1_dropShadow_1943_4464"/>
<feColorMatrix in="SourceAlpha" type="matrix" values="0 0 0 0 0 0 0 0 0 0 0 0 0 0 0 0 0 0 127 0" result="hardAlpha"/>
<feOffset dx="1" dy="1"/>
<feGaussianBlur stdDeviation="0.5"/>
<feComposite in2="hardAlpha" operator="out"/>
<feColorMatrix type="matrix" values="0 0 0 0 0.556863 0 0 0 0 0.298039 0 0 0 0 0.713726 0 0 0 0.5 0"/>
<feBlend mode="normal" in2="effect1_dropShadow_1943_4464" result="effect2_dropShadow_1943_4464"/>
<feBlend mode="normal" in="SourceGraphic" in2="effect2_dropShadow_1943_4464" result="shape"/>
</filter>
<linearGradient id="paint0_linear_1943_4464" x1="114" y1="140" x2="-49.893" y2="-69.0539" gradientUnits="userSpaceOnUse">
<stop stop-color="#F4D7F0"/>
<stop offset="1" stop-color="#F4F4F4"/>
</linearGradient>
<linearGradient id="paint1_linear_1943_4464" x1="67" y1="20" x2="67.0415" y2="174.085" gradientUnits="userSpaceOnUse">
<stop stop-color="#B945AA"/>
<stop offset="0.346154" stop-color="#8E4CB6"/>
<stop offset="1" stop-color="#5B53C2"/>
</linearGradient>
<linearGradient id="paint2_linear_1943_4464" x1="114" y1="140" x2="-49.893" y2="-69.0539" gradientUnits="userSpaceOnUse">
<stop stop-color="#F4D7F0"/>
<stop offset="1" stop-color="#F4F4F4"/>
</linearGradient>
<linearGradient id="paint3_linear_1943_4464" x1="67" y1="20" x2="67.0415" y2="174.085" gradientUnits="userSpaceOnUse">
<stop stop-color="#B945AA"/>
<stop offset="0.346154" stop-color="#8E4CB6"/>
<stop offset="1" stop-color="#5B53C2"/>
</linearGradient>
<linearGradient id="paint4_linear_1943_4464" x1="114" y1="140" x2="-49.893" y2="-69.0539" gradientUnits="userSpaceOnUse">
<stop stop-color="#F4D7F0"/>
<stop offset="1" stop-color="#F4F4F4"/>
</linearGradient>
<linearGradient id="paint5_linear_1943_4464" x1="67" y1="20" x2="67.0415" y2="174.085" gradientUnits="userSpaceOnUse">
<stop stop-color="#B945AA"/>
<stop offset="0.346154" stop-color="#8E4CB6"/>
<stop offset="1" stop-color="#5B53C2"/>
</linearGradient>
<linearGradient id="paint6_linear_1943_4464" x1="114" y1="140" x2="-49.893" y2="-69.0539" gradientUnits="userSpaceOnUse">
<stop stop-color="#F4D7F0"/>
<stop offset="1" stop-color="#F4F4F4"/>
</linearGradient>
<linearGradient id="paint7_linear_1943_4464" x1="67" y1="20" x2="67.0415" y2="174.085" gradientUnits="userSpaceOnUse">
<stop stop-color="#B945AA"/>
<stop offset="0.346154" stop-color="#8E4CB6"/>
<stop offset="1" stop-color="#5B53C2"/>
</linearGradient>
<linearGradient id="paint8_linear_1943_4464" x1="67" y1="147" x2="67.0018" y2="179.101" gradientUnits="userSpaceOnUse">
<stop stop-color="#B945AA"/>
<stop offset="0.346154" stop-color="#8E4CB6"/>
<stop offset="1" stop-color="#5B53C2"/>
</linearGradient>
<linearGradient id="paint9_linear_1943_4464" x1="67" y1="147" x2="67.0018" y2="179.101" gradientUnits="userSpaceOnUse">
<stop stop-color="#B945AA"/>
<stop offset="0.346154" stop-color="#8E4CB6"/>
<stop offset="1" stop-color="#5B53C2"/>
</linearGradient>
<linearGradient id="paint10_linear_1943_4464" x1="67" y1="147" x2="67.0018" y2="179.101" gradientUnits="userSpaceOnUse">
<stop stop-color="#B945AA"/>
<stop offset="0.346154" stop-color="#8E4CB6"/>
<stop offset="1" stop-color="#5B53C2"/>
</linearGradient>
<linearGradient id="paint11_linear_1943_4464" x1="67" y1="147" x2="67.0018" y2="179.101" gradientUnits="userSpaceOnUse">
<stop stop-color="#B945AA"/>
<stop offset="0.346154" stop-color="#8E4CB6"/>
<stop offset="1" stop-color="#5B53C2"/>
</linearGradient>
<linearGradient id="paint12_linear_1943_4464" x1="67" y1="147" x2="67.0018" y2="179.101" gradientUnits="userSpaceOnUse">
<stop stop-color="#B945AA"/>
<stop offset="0.346154" stop-color="#8E4CB6"/>
<stop offset="1" stop-color="#5B53C2"/>
</linearGradient>
<linearGradient id="paint13_linear_1943_4464" x1="67" y1="147" x2="67.0018" y2="179.101" gradientUnits="userSpaceOnUse">
<stop stop-color="#B945AA"/>
<stop offset="0.346154" stop-color="#8E4CB6"/>
<stop offset="1" stop-color="#5B53C2"/>
</linearGradient>
</defs>
</svg>
