<svg width="208" height="101" viewBox="0 0 208 101" fill="none" xmlns="http://www.w3.org/2000/svg">
<g filter="url(#filter0_dd_1739_4369)">
<path d="M36.2828 20H20.8156C20.3661 20 20.0025 20.3647 20.0055 20.8142C20.0596 28.964 20.157 46.3996 20.1618 58.3056C20.162 58.7888 20.5955 59.1593 21.0766 59.1142C43.2786 57.0319 49.9213 71.6802 50.5767 80.0581C50.6107 80.493 50.9669 80.838 51.4031 80.838H67.2002C67.6584 80.838 68.0263 80.4619 67.9985 80.0046C67.5558 72.7158 64.3219 58.1935 54.3629 51.0745C53.92 50.7579 53.88 50.1011 54.2871 49.7396C65.9792 39.3582 68.1374 26.8088 67.7241 20.9141C67.6899 20.4259 67.2188 20 66.7294 20H51.3985C50.9697 20 50.6028 20.3376 50.565 20.7647C49.6261 31.383 42.5227 37.4183 38.177 39.6005C37.6655 39.8573 37.0929 39.469 37.0929 38.8966V20.8101C37.0929 20.3627 36.7302 20 36.2828 20Z" fill="url(#paint0_linear_1739_4369)"/>
<path d="M36.2828 20H20.8156C20.3661 20 20.0025 20.3647 20.0055 20.8142C20.0596 28.964 20.157 46.3996 20.1618 58.3056C20.162 58.7888 20.5955 59.1593 21.0766 59.1142C43.2786 57.0319 49.9213 71.6802 50.5767 80.0581C50.6107 80.493 50.9669 80.838 51.4031 80.838H67.2002C67.6584 80.838 68.0263 80.4619 67.9985 80.0046C67.5558 72.7158 64.3219 58.1935 54.3629 51.0745C53.92 50.7579 53.88 50.1011 54.2871 49.7396C65.9792 39.3582 68.1374 26.8088 67.7241 20.9141C67.6899 20.4259 67.2188 20 66.7294 20H51.3985C50.9697 20 50.6028 20.3376 50.565 20.7647C49.6261 31.383 42.5227 37.4183 38.177 39.6005C37.6655 39.8573 37.0929 39.469 37.0929 38.8966V20.8101C37.0929 20.3627 36.7302 20 36.2828 20Z" fill="url(#paint1_linear_1739_4369)"/>
<path fill-rule="evenodd" clip-rule="evenodd" d="M25.6706 68.7676C32.8254 68.7676 38.7764 73.9207 40.0151 80.718C40.042 80.8653 39.9278 81 39.7781 81H38.3301C38.2136 81 38.1138 80.9172 38.0897 80.8033C37.5089 78.0621 35.974 75.7891 34.8026 74.5302C34.5723 74.2826 34.2052 74.2234 33.9256 74.4136C32.2585 75.5473 30.7016 78.2435 30.9925 80.7129C31.0102 80.8632 30.896 81 30.7447 81H28.8897C28.8137 81 28.7424 80.9641 28.6946 80.9051C27.9818 80.0242 26.8921 79.4608 25.6706 79.4608C24.4492 79.4608 23.3595 80.0242 22.6466 80.9051C22.5988 80.9641 22.5276 81 22.4516 81H20.8911C20.399 81 20 80.601 20 80.1089V74.8528C20 74.5973 20.3769 74.4959 20.5244 74.7044C22.718 77.8062 27.8746 80.1867 31.2224 73.045C31.39 72.6874 31.2604 72.2539 30.9134 72.0654C26.8887 69.8798 22.2902 71.0663 20.0125 72.1562C20.0067 72.159 20 72.1549 20 72.1485V70.0724C20 69.9747 20.0584 69.8863 20.1488 69.8493C21.8519 69.152 23.7164 68.7676 25.6706 68.7676ZM22.3493 78.1647C21.9466 78.1647 21.6202 78.4911 21.6202 78.8938C21.6202 79.2964 21.9466 79.6228 22.3493 79.6228C22.7519 79.6228 23.0783 79.2964 23.0783 78.8938C23.0783 78.4911 22.7519 78.1647 22.3493 78.1647ZM28.992 78.1647C28.5894 78.1647 28.2629 78.4911 28.2629 78.8938C28.2629 79.2964 28.5894 79.6228 28.992 79.6228C29.3946 79.6228 29.7211 79.2964 29.7211 78.8938C29.7211 78.4911 29.3946 78.1647 28.992 78.1647Z" fill="url(#paint2_linear_1739_4369)"/>
<path fill-rule="evenodd" clip-rule="evenodd" d="M25.6706 68.7676C32.8254 68.7676 38.7764 73.9207 40.0151 80.718C40.042 80.8653 39.9278 81 39.7781 81H38.3301C38.2136 81 38.1138 80.9172 38.0897 80.8033C37.5089 78.0621 35.974 75.7891 34.8026 74.5302C34.5723 74.2826 34.2052 74.2234 33.9256 74.4136C32.2585 75.5473 30.7016 78.2435 30.9925 80.7129C31.0102 80.8632 30.896 81 30.7447 81H28.8897C28.8137 81 28.7424 80.9641 28.6946 80.9051C27.9818 80.0242 26.8921 79.4608 25.6706 79.4608C24.4492 79.4608 23.3595 80.0242 22.6466 80.9051C22.5988 80.9641 22.5276 81 22.4516 81H20.8911C20.399 81 20 80.601 20 80.1089V74.8528C20 74.5973 20.3769 74.4959 20.5244 74.7044C22.718 77.8062 27.8746 80.1867 31.2224 73.045C31.39 72.6874 31.2604 72.2539 30.9134 72.0654C26.8887 69.8798 22.2902 71.0663 20.0125 72.1562C20.0067 72.159 20 72.1549 20 72.1485V70.0724C20 69.9747 20.0584 69.8863 20.1488 69.8493C21.8519 69.152 23.7164 68.7676 25.6706 68.7676ZM22.3493 78.1647C21.9466 78.1647 21.6202 78.4911 21.6202 78.8938C21.6202 79.2964 21.9466 79.6228 22.3493 79.6228C22.7519 79.6228 23.0783 79.2964 23.0783 78.8938C23.0783 78.4911 22.7519 78.1647 22.3493 78.1647ZM28.992 78.1647C28.5894 78.1647 28.2629 78.4911 28.2629 78.8938C28.2629 79.2964 28.5894 79.6228 28.992 79.6228C29.3946 79.6228 29.7211 79.2964 29.7211 78.8938C29.7211 78.4911 29.3946 78.1647 28.992 78.1647Z" fill="url(#paint3_linear_1739_4369)"/>
<path d="M27.6205 61.6388C27.992 61.6388 28.3244 61.8692 28.4548 62.2169L28.7029 62.8783C28.9066 63.4213 29.632 63.5208 29.9742 63.0525L30.2769 62.6381C30.5065 62.3239 30.9136 62.1951 31.2822 62.3199L35.1916 63.6439C35.5533 63.7665 35.7967 64.1061 35.7967 64.488V65.0062C35.7967 65.5526 36.3755 65.9048 36.8608 65.6538L37.5342 65.3056C37.8614 65.1363 38.2589 65.1859 38.5346 65.4302L41.3052 67.886C41.5596 68.1115 41.6636 68.4621 41.5732 68.7897L41.3737 69.5133C41.2375 70.007 41.6394 70.4835 42.149 70.4326L42.8861 70.359C43.2329 70.3243 43.5681 70.4949 43.744 70.7957L45.7134 74.1626C45.8987 74.4795 45.8707 74.8777 45.6428 75.1656L45.2561 75.6539C44.9207 76.0775 45.1467 76.7061 45.6751 76.8193L46.1556 76.9223C46.4991 76.9959 46.7673 77.2646 46.8404 77.6082L47.3331 79.9235C47.451 80.4778 47.0282 81 46.4615 81H41.9134C41.7927 81 41.6904 80.9108 41.6715 80.7915C40.4451 73.0588 33.7483 67.1474 25.6706 67.1474C23.7991 67.1474 22.0018 67.465 20.3294 68.0488C20.1693 68.1046 20 67.9871 20 67.8175V62.7145C20 62.5748 20.0555 62.4407 20.1543 62.3419C20.3777 62.1185 20.7461 62.1407 20.9413 62.3891L21.462 63.0515C21.8246 63.513 22.556 63.3788 22.731 62.8186L22.9045 62.2641C23.0207 61.8921 23.3652 61.6388 23.7549 61.6388H27.6205Z" fill="url(#paint4_linear_1739_4369)"/>
<path d="M27.6205 61.6388C27.992 61.6388 28.3244 61.8692 28.4548 62.2169L28.7029 62.8783C28.9066 63.4213 29.632 63.5208 29.9742 63.0525L30.2769 62.6381C30.5065 62.3239 30.9136 62.1951 31.2822 62.3199L35.1916 63.6439C35.5533 63.7665 35.7967 64.1061 35.7967 64.488V65.0062C35.7967 65.5526 36.3755 65.9048 36.8608 65.6538L37.5342 65.3056C37.8614 65.1363 38.2589 65.1859 38.5346 65.4302L41.3052 67.886C41.5596 68.1115 41.6636 68.4621 41.5732 68.7897L41.3737 69.5133C41.2375 70.007 41.6394 70.4835 42.149 70.4326L42.8861 70.359C43.2329 70.3243 43.5681 70.4949 43.744 70.7957L45.7134 74.1626C45.8987 74.4795 45.8707 74.8777 45.6428 75.1656L45.2561 75.6539C44.9207 76.0775 45.1467 76.7061 45.6751 76.8193L46.1556 76.9223C46.4991 76.9959 46.7673 77.2646 46.8404 77.6082L47.3331 79.9235C47.451 80.4778 47.0282 81 46.4615 81H41.9134C41.7927 81 41.6904 80.9108 41.6715 80.7915C40.4451 73.0588 33.7483 67.1474 25.6706 67.1474C23.7991 67.1474 22.0018 67.465 20.3294 68.0488C20.1693 68.1046 20 67.9871 20 67.8175V62.7145C20 62.5748 20.0555 62.4407 20.1543 62.3419C20.3777 62.1185 20.7461 62.1407 20.9413 62.3891L21.462 63.0515C21.8246 63.513 22.556 63.3788 22.731 62.8186L22.9045 62.2641C23.0207 61.8921 23.3652 61.6388 23.7549 61.6388H27.6205Z" fill="url(#paint5_linear_1739_4369)"/>
<path d="M25.6706 80.2709C26.1915 80.2709 26.6822 80.4004 27.1122 80.6288C27.3121 80.735 27.2233 81 26.997 81H24.3443C24.118 81 24.0292 80.735 24.229 80.6288C24.6591 80.4004 25.1497 80.2709 25.6706 80.2709Z" fill="url(#paint6_linear_1739_4369)"/>
<path d="M25.6706 80.2709C26.1915 80.2709 26.6822 80.4004 27.1122 80.6288C27.3121 80.735 27.2233 81 26.997 81H24.3443C24.118 81 24.0292 80.735 24.229 80.6288C24.6591 80.4004 25.1497 80.2709 25.6706 80.2709Z" fill="url(#paint7_linear_1739_4369)"/>
<path d="M81 69.12C78.9733 69.12 77.2133 68.7067 75.72 67.88C74.2267 67.0533 73.0667 65.88 72.24 64.36C71.4133 62.8133 71 61 71 58.92C71 57.3467 71.2267 55.9467 71.68 54.72C72.16 53.4667 72.84 52.4 73.72 51.52C74.6 50.6133 75.6533 49.9333 76.88 49.48C78.1067 49 79.48 48.76 81 48.76C83.0267 48.76 84.7867 49.1733 86.28 50C87.7733 50.8267 88.9333 52 89.76 53.52C90.5867 55.04 91 56.84 91 58.92C91 60.4933 90.76 61.9067 90.28 63.16C89.8267 64.4133 89.16 65.4933 88.28 66.4C87.4 67.28 86.3467 67.96 85.12 68.44C83.8933 68.8933 82.52 69.12 81 69.12ZM81 65.32C81.9867 65.32 82.8533 65.08 83.6 64.6C84.3467 64.12 84.92 63.4133 85.32 62.48C85.7467 61.52 85.96 60.3333 85.96 58.92C85.96 56.7867 85.5067 55.2 84.6 54.16C83.6933 53.0933 82.4933 52.56 81 52.56C80.0133 52.56 79.1467 52.8 78.4 53.28C77.6533 53.7333 77.0667 54.44 76.64 55.4C76.24 56.3333 76.04 57.5067 76.04 58.92C76.04 61.0267 76.4933 62.6267 77.4 63.72C78.3067 64.7867 79.5067 65.32 81 65.32Z" fill="#F4D7F0"/>
<path d="M81 69.12C78.9733 69.12 77.2133 68.7067 75.72 67.88C74.2267 67.0533 73.0667 65.88 72.24 64.36C71.4133 62.8133 71 61 71 58.92C71 57.3467 71.2267 55.9467 71.68 54.72C72.16 53.4667 72.84 52.4 73.72 51.52C74.6 50.6133 75.6533 49.9333 76.88 49.48C78.1067 49 79.48 48.76 81 48.76C83.0267 48.76 84.7867 49.1733 86.28 50C87.7733 50.8267 88.9333 52 89.76 53.52C90.5867 55.04 91 56.84 91 58.92C91 60.4933 90.76 61.9067 90.28 63.16C89.8267 64.4133 89.16 65.4933 88.28 66.4C87.4 67.28 86.3467 67.96 85.12 68.44C83.8933 68.8933 82.52 69.12 81 69.12ZM81 65.32C81.9867 65.32 82.8533 65.08 83.6 64.6C84.3467 64.12 84.92 63.4133 85.32 62.48C85.7467 61.52 85.96 60.3333 85.96 58.92C85.96 56.7867 85.5067 55.2 84.6 54.16C83.6933 53.0933 82.4933 52.56 81 52.56C80.0133 52.56 79.1467 52.8 78.4 53.28C77.6533 53.7333 77.0667 54.44 76.64 55.4C76.24 56.3333 76.04 57.5067 76.04 58.92C76.04 61.0267 76.4933 62.6267 77.4 63.72C78.3067 64.7867 79.5067 65.32 81 65.32Z" fill="url(#paint8_linear_1739_4369)"/>
<path d="M97.6869 69.04C96.8869 69.04 96.2735 68.8267 95.8469 68.4C95.4202 67.9467 95.2069 67.3067 95.2069 66.48V51.36C95.2069 50.5333 95.4202 49.9067 95.8469 49.48C96.2735 49.0533 96.8735 48.84 97.6469 48.84C98.4202 48.84 99.0202 49.0533 99.4469 49.48C99.8735 49.9067 100.087 50.5333 100.087 51.36V54.28L99.6469 53.08C100.18 51.7467 101.007 50.6933 102.127 49.92C103.247 49.1467 104.58 48.76 106.127 48.76C107.7 48.76 108.994 49.1333 110.007 49.88C111.02 50.6267 111.727 51.7733 112.127 53.32H111.567C112.1 51.9067 112.98 50.8 114.207 50C115.434 49.1733 116.847 48.76 118.447 48.76C119.94 48.76 121.167 49.0533 122.127 49.64C123.114 50.2267 123.847 51.12 124.327 52.32C124.807 53.4933 125.047 54.9867 125.047 56.8V66.48C125.047 67.3067 124.82 67.9467 124.367 68.4C123.94 68.8267 123.327 69.04 122.527 69.04C121.727 69.04 121.114 68.8267 120.687 68.4C120.26 67.9467 120.047 67.3067 120.047 66.48V57C120.047 55.5067 119.794 54.4133 119.287 53.72C118.807 53.0267 117.98 52.68 116.807 52.68C115.5 52.68 114.474 53.1467 113.727 54.08C112.98 54.9867 112.607 56.2533 112.607 57.88V66.48C112.607 67.3067 112.394 67.9467 111.967 68.4C111.54 68.8267 110.927 69.04 110.127 69.04C109.327 69.04 108.7 68.8267 108.247 68.4C107.82 67.9467 107.607 67.3067 107.607 66.48V57C107.607 55.5067 107.354 54.4133 106.847 53.72C106.367 53.0267 105.554 52.68 104.407 52.68C103.1 52.68 102.074 53.1467 101.327 54.08C100.58 54.9867 100.207 56.2533 100.207 57.88V66.48C100.207 68.1867 99.3669 69.04 97.6869 69.04Z" fill="#F4D7F0"/>
<path d="M97.6869 69.04C96.8869 69.04 96.2735 68.8267 95.8469 68.4C95.4202 67.9467 95.2069 67.3067 95.2069 66.48V51.36C95.2069 50.5333 95.4202 49.9067 95.8469 49.48C96.2735 49.0533 96.8735 48.84 97.6469 48.84C98.4202 48.84 99.0202 49.0533 99.4469 49.48C99.8735 49.9067 100.087 50.5333 100.087 51.36V54.28L99.6469 53.08C100.18 51.7467 101.007 50.6933 102.127 49.92C103.247 49.1467 104.58 48.76 106.127 48.76C107.7 48.76 108.994 49.1333 110.007 49.88C111.02 50.6267 111.727 51.7733 112.127 53.32H111.567C112.1 51.9067 112.98 50.8 114.207 50C115.434 49.1733 116.847 48.76 118.447 48.76C119.94 48.76 121.167 49.0533 122.127 49.64C123.114 50.2267 123.847 51.12 124.327 52.32C124.807 53.4933 125.047 54.9867 125.047 56.8V66.48C125.047 67.3067 124.82 67.9467 124.367 68.4C123.94 68.8267 123.327 69.04 122.527 69.04C121.727 69.04 121.114 68.8267 120.687 68.4C120.26 67.9467 120.047 67.3067 120.047 66.48V57C120.047 55.5067 119.794 54.4133 119.287 53.72C118.807 53.0267 117.98 52.68 116.807 52.68C115.5 52.68 114.474 53.1467 113.727 54.08C112.98 54.9867 112.607 56.2533 112.607 57.88V66.48C112.607 67.3067 112.394 67.9467 111.967 68.4C111.54 68.8267 110.927 69.04 110.127 69.04C109.327 69.04 108.7 68.8267 108.247 68.4C107.82 67.9467 107.607 67.3067 107.607 66.48V57C107.607 55.5067 107.354 54.4133 106.847 53.72C106.367 53.0267 105.554 52.68 104.407 52.68C103.1 52.68 102.074 53.1467 101.327 54.08C100.58 54.9867 100.207 56.2533 100.207 57.88V66.48C100.207 68.1867 99.3669 69.04 97.6869 69.04Z" fill="url(#paint9_linear_1739_4369)"/>
<path d="M134.97 76.24C134.383 76.24 133.903 76.08 133.53 75.76C133.156 75.4667 132.93 75.0667 132.85 74.56C132.796 74.0533 132.89 73.52 133.13 72.96L135.85 66.92V69L128.57 52.16C128.33 51.5733 128.25 51.0267 128.33 50.52C128.41 50.0133 128.65 49.6133 129.05 49.32C129.476 49 130.05 48.84 130.77 48.84C131.383 48.84 131.876 48.9867 132.25 49.28C132.623 49.5467 132.956 50.0667 133.25 50.84L138.65 64.32H137.45L142.97 50.8C143.263 50.0533 143.61 49.5467 144.01 49.28C144.41 48.9867 144.943 48.84 145.61 48.84C146.196 48.84 146.663 49 147.01 49.32C147.356 49.6133 147.57 50.0133 147.65 50.52C147.73 51 147.636 51.5333 147.37 52.12L137.65 74.32C137.303 75.0667 136.93 75.5733 136.53 75.84C136.13 76.1067 135.61 76.24 134.97 76.24Z" fill="#F4D7F0"/>
<path d="M134.97 76.24C134.383 76.24 133.903 76.08 133.53 75.76C133.156 75.4667 132.93 75.0667 132.85 74.56C132.796 74.0533 132.89 73.52 133.13 72.96L135.85 66.92V69L128.57 52.16C128.33 51.5733 128.25 51.0267 128.33 50.52C128.41 50.0133 128.65 49.6133 129.05 49.32C129.476 49 130.05 48.84 130.77 48.84C131.383 48.84 131.876 48.9867 132.25 49.28C132.623 49.5467 132.956 50.0667 133.25 50.84L138.65 64.32H137.45L142.97 50.8C143.263 50.0533 143.61 49.5467 144.01 49.28C144.41 48.9867 144.943 48.84 145.61 48.84C146.196 48.84 146.663 49 147.01 49.32C147.356 49.6133 147.57 50.0133 147.65 50.52C147.73 51 147.636 51.5333 147.37 52.12L137.65 74.32C137.303 75.0667 136.93 75.5733 136.53 75.84C136.13 76.1067 135.61 76.24 134.97 76.24Z" fill="url(#paint10_linear_1739_4369)"/>
<path d="M158.144 69.12C156.518 69.12 155.171 68.8267 154.104 68.24C153.038 67.6267 152.238 66.72 151.704 65.52C151.198 64.32 150.944 62.8267 150.944 61.04V51.36C150.944 50.5067 151.158 49.88 151.584 49.48C152.011 49.0533 152.624 48.84 153.424 48.84C154.224 48.84 154.838 49.0533 155.264 49.48C155.718 49.88 155.944 50.5067 155.944 51.36V61.12C155.944 62.5067 156.224 63.5333 156.784 64.2C157.344 64.8667 158.238 65.2 159.464 65.2C160.798 65.2 161.891 64.7467 162.744 63.84C163.598 62.9067 164.024 61.68 164.024 60.16V51.36C164.024 50.5067 164.238 49.88 164.664 49.48C165.091 49.0533 165.704 48.84 166.504 48.84C167.304 48.84 167.918 49.0533 168.344 49.48C168.798 49.88 169.024 50.5067 169.024 51.36V66.48C169.024 68.1867 168.211 69.04 166.584 69.04C165.811 69.04 165.211 68.8267 164.784 68.4C164.358 67.9467 164.144 67.3067 164.144 66.48V63.44L164.704 64.64C164.144 66.08 163.291 67.1867 162.144 67.96C161.024 68.7333 159.691 69.12 158.144 69.12Z" fill="#F4D7F0"/>
<path d="M158.144 69.12C156.518 69.12 155.171 68.8267 154.104 68.24C153.038 67.6267 152.238 66.72 151.704 65.52C151.198 64.32 150.944 62.8267 150.944 61.04V51.36C150.944 50.5067 151.158 49.88 151.584 49.48C152.011 49.0533 152.624 48.84 153.424 48.84C154.224 48.84 154.838 49.0533 155.264 49.48C155.718 49.88 155.944 50.5067 155.944 51.36V61.12C155.944 62.5067 156.224 63.5333 156.784 64.2C157.344 64.8667 158.238 65.2 159.464 65.2C160.798 65.2 161.891 64.7467 162.744 63.84C163.598 62.9067 164.024 61.68 164.024 60.16V51.36C164.024 50.5067 164.238 49.88 164.664 49.48C165.091 49.0533 165.704 48.84 166.504 48.84C167.304 48.84 167.918 49.0533 168.344 49.48C168.798 49.88 169.024 50.5067 169.024 51.36V66.48C169.024 68.1867 168.211 69.04 166.584 69.04C165.811 69.04 165.211 68.8267 164.784 68.4C164.358 67.9467 164.144 67.3067 164.144 66.48V63.44L164.704 64.64C164.144 66.08 163.291 67.1867 162.144 67.96C161.024 68.7333 159.691 69.12 158.144 69.12Z" fill="url(#paint11_linear_1739_4369)"/>
<path d="M183.188 69.12C181.455 69.12 180.002 68.8267 178.828 68.24C177.682 67.6533 176.828 66.8 176.268 65.68C175.708 64.5333 175.428 63.12 175.428 61.44V52.92H173.348C172.708 52.92 172.215 52.76 171.868 52.44C171.522 52.0933 171.348 51.6267 171.348 51.04C171.348 50.4267 171.522 49.96 171.868 49.64C172.215 49.32 172.708 49.16 173.348 49.16H175.428V45.52C175.428 44.6933 175.642 44.0667 176.068 43.64C176.522 43.2133 177.148 43 177.948 43C178.748 43 179.362 43.2133 179.788 43.64C180.215 44.0667 180.428 44.6933 180.428 45.52V49.16H184.668C185.308 49.16 185.802 49.32 186.148 49.64C186.495 49.96 186.668 50.4267 186.668 51.04C186.668 51.6267 186.495 52.0933 186.148 52.44C185.802 52.76 185.308 52.92 184.668 52.92H180.428V61.16C180.428 62.44 180.708 63.4 181.268 64.04C181.828 64.68 182.735 65 183.988 65C184.442 65 184.842 64.96 185.188 64.88C185.535 64.8 185.842 64.7467 186.108 64.72C186.428 64.6933 186.695 64.8 186.908 65.04C187.122 65.2533 187.228 65.7067 187.228 66.4C187.228 66.9333 187.135 67.4133 186.948 67.84C186.788 68.24 186.482 68.52 186.028 68.68C185.682 68.7867 185.228 68.88 184.668 68.96C184.108 69.0667 183.615 69.12 183.188 69.12Z" fill="#F4D7F0"/>
<path d="M183.188 69.12C181.455 69.12 180.002 68.8267 178.828 68.24C177.682 67.6533 176.828 66.8 176.268 65.68C175.708 64.5333 175.428 63.12 175.428 61.44V52.92H173.348C172.708 52.92 172.215 52.76 171.868 52.44C171.522 52.0933 171.348 51.6267 171.348 51.04C171.348 50.4267 171.522 49.96 171.868 49.64C172.215 49.32 172.708 49.16 173.348 49.16H175.428V45.52C175.428 44.6933 175.642 44.0667 176.068 43.64C176.522 43.2133 177.148 43 177.948 43C178.748 43 179.362 43.2133 179.788 43.64C180.215 44.0667 180.428 44.6933 180.428 45.52V49.16H184.668C185.308 49.16 185.802 49.32 186.148 49.64C186.495 49.96 186.668 50.4267 186.668 51.04C186.668 51.6267 186.495 52.0933 186.148 52.44C185.802 52.76 185.308 52.92 184.668 52.92H180.428V61.16C180.428 62.44 180.708 63.4 181.268 64.04C181.828 64.68 182.735 65 183.988 65C184.442 65 184.842 64.96 185.188 64.88C185.535 64.8 185.842 64.7467 186.108 64.72C186.428 64.6933 186.695 64.8 186.908 65.04C187.122 65.2533 187.228 65.7067 187.228 66.4C187.228 66.9333 187.135 67.4133 186.948 67.84C186.788 68.24 186.482 68.52 186.028 68.68C185.682 68.7867 185.228 68.88 184.668 68.96C184.108 69.0667 183.615 69.12 183.188 69.12Z" fill="url(#paint12_linear_1739_4369)"/>
</g>
<defs>
<filter id="filter0_dd_1739_4369" x="0" y="0" width="207.229" height="101" filterUnits="userSpaceOnUse" color-interpolation-filters="sRGB">
<feFlood flood-opacity="0" result="BackgroundImageFix"/>
<feColorMatrix in="SourceAlpha" type="matrix" values="0 0 0 0 0 0 0 0 0 0 0 0 0 0 0 0 0 0 127 0" result="hardAlpha"/>
<feOffset/>
<feGaussianBlur stdDeviation="10"/>
<feComposite in2="hardAlpha" operator="out"/>
<feColorMatrix type="matrix" values="0 0 0 0 0.556863 0 0 0 0 0.298039 0 0 0 0 0.713726 0 0 0 0.25 0"/>
<feBlend mode="normal" in2="BackgroundImageFix" result="effect1_dropShadow_1739_4369"/>
<feColorMatrix in="SourceAlpha" type="matrix" values="0 0 0 0 0 0 0 0 0 0 0 0 0 0 0 0 0 0 127 0" result="hardAlpha"/>
<feOffset dx="1" dy="1"/>
<feGaussianBlur stdDeviation="0.5"/>
<feComposite in2="hardAlpha" operator="out"/>
<feColorMatrix type="matrix" values="0 0 0 0 0.556863 0 0 0 0 0.298039 0 0 0 0 0.713726 0 0 0 0.5 0"/>
<feBlend mode="normal" in2="effect1_dropShadow_1739_4369" result="effect2_dropShadow_1739_4369"/>
<feBlend mode="normal" in="SourceGraphic" in2="effect2_dropShadow_1739_4369" result="shape"/>
</filter>
<linearGradient id="paint0_linear_1739_4369" x1="187.228" y1="81" x2="150.628" y2="-82.385" gradientUnits="userSpaceOnUse">
<stop stop-color="#F4D7F0"/>
<stop offset="1" stop-color="#F4F4F4"/>
</linearGradient>
<linearGradient id="paint1_linear_1739_4369" x1="103.614" y1="20" x2="103.62" y2="98.3263" gradientUnits="userSpaceOnUse">
<stop stop-color="#B945AA"/>
<stop offset="0.346154" stop-color="#8E4CB6"/>
<stop offset="1" stop-color="#5B53C2"/>
</linearGradient>
<linearGradient id="paint2_linear_1739_4369" x1="187.228" y1="81" x2="150.628" y2="-82.385" gradientUnits="userSpaceOnUse">
<stop stop-color="#F4D7F0"/>
<stop offset="1" stop-color="#F4F4F4"/>
</linearGradient>
<linearGradient id="paint3_linear_1739_4369" x1="103.614" y1="20" x2="103.62" y2="98.3263" gradientUnits="userSpaceOnUse">
<stop stop-color="#B945AA"/>
<stop offset="0.346154" stop-color="#8E4CB6"/>
<stop offset="1" stop-color="#5B53C2"/>
</linearGradient>
<linearGradient id="paint4_linear_1739_4369" x1="187.228" y1="81" x2="150.628" y2="-82.385" gradientUnits="userSpaceOnUse">
<stop stop-color="#F4D7F0"/>
<stop offset="1" stop-color="#F4F4F4"/>
</linearGradient>
<linearGradient id="paint5_linear_1739_4369" x1="103.614" y1="20" x2="103.62" y2="98.3263" gradientUnits="userSpaceOnUse">
<stop stop-color="#B945AA"/>
<stop offset="0.346154" stop-color="#8E4CB6"/>
<stop offset="1" stop-color="#5B53C2"/>
</linearGradient>
<linearGradient id="paint6_linear_1739_4369" x1="187.228" y1="81" x2="150.628" y2="-82.385" gradientUnits="userSpaceOnUse">
<stop stop-color="#F4D7F0"/>
<stop offset="1" stop-color="#F4F4F4"/>
</linearGradient>
<linearGradient id="paint7_linear_1739_4369" x1="103.614" y1="20" x2="103.62" y2="98.3263" gradientUnits="userSpaceOnUse">
<stop stop-color="#B945AA"/>
<stop offset="0.346154" stop-color="#8E4CB6"/>
<stop offset="1" stop-color="#5B53C2"/>
</linearGradient>
<linearGradient id="paint8_linear_1739_4369" x1="119.127" y1="40.2" x2="119.129" y2="86.4767" gradientUnits="userSpaceOnUse">
<stop stop-color="#B945AA"/>
<stop offset="0.346154" stop-color="#8E4CB6"/>
<stop offset="1" stop-color="#5B53C2"/>
</linearGradient>
<linearGradient id="paint9_linear_1739_4369" x1="119.127" y1="40.2" x2="119.129" y2="86.4767" gradientUnits="userSpaceOnUse">
<stop stop-color="#B945AA"/>
<stop offset="0.346154" stop-color="#8E4CB6"/>
<stop offset="1" stop-color="#5B53C2"/>
</linearGradient>
<linearGradient id="paint10_linear_1739_4369" x1="119.127" y1="40.2" x2="119.129" y2="86.4767" gradientUnits="userSpaceOnUse">
<stop stop-color="#B945AA"/>
<stop offset="0.346154" stop-color="#8E4CB6"/>
<stop offset="1" stop-color="#5B53C2"/>
</linearGradient>
<linearGradient id="paint11_linear_1739_4369" x1="119.127" y1="40.2" x2="119.129" y2="86.4767" gradientUnits="userSpaceOnUse">
<stop stop-color="#B945AA"/>
<stop offset="0.346154" stop-color="#8E4CB6"/>
<stop offset="1" stop-color="#5B53C2"/>
</linearGradient>
<linearGradient id="paint12_linear_1739_4369" x1="119.127" y1="40.2" x2="119.129" y2="86.4767" gradientUnits="userSpaceOnUse">
<stop stop-color="#B945AA"/>
<stop offset="0.346154" stop-color="#8E4CB6"/>
<stop offset="1" stop-color="#5B53C2"/>
</linearGradient>
</defs>
</svg>
