<svg width="158" height="83" viewBox="0 0 158 83" fill="none" xmlns="http://www.w3.org/2000/svg">
<g filter="url(#filter0_dd_833_3586)">
<path d="M31.478 20H20.5749C20.258 20 20.0018 20.2571 20.0039 20.574C20.042 26.3189 20.1107 38.6096 20.1141 47.0023C20.1142 47.3429 20.4198 47.6041 20.7589 47.5723C36.4095 46.1045 41.0921 56.4303 41.5541 62.3361C41.5781 62.6426 41.8291 62.8858 42.1366 62.8858H53.2723C53.5953 62.8858 53.8546 62.6207 53.835 62.2983C53.5229 57.1603 51.2433 46.9233 44.2231 41.905C43.9109 41.6818 43.8826 41.2188 44.1696 40.964C52.4115 33.6459 53.9329 24.7997 53.6416 20.6444C53.6174 20.3002 53.2854 20 52.9404 20H42.1334C41.8311 20 41.5725 20.238 41.5458 20.5391C40.884 28.0241 35.8766 32.2785 32.8133 33.8167C32.4527 33.9978 32.0491 33.724 32.0491 33.3206V20.571C32.0491 20.2557 31.7934 20 31.478 20Z" fill="url(#paint0_linear_833_3586)"/>
<path d="M31.478 20H20.5749C20.258 20 20.0018 20.2571 20.0039 20.574C20.042 26.3189 20.1107 38.6096 20.1141 47.0023C20.1142 47.3429 20.4198 47.6041 20.7589 47.5723C36.4095 46.1045 41.0921 56.4303 41.5541 62.3361C41.5781 62.6426 41.8291 62.8858 42.1366 62.8858H53.2723C53.5953 62.8858 53.8546 62.6207 53.835 62.2983C53.5229 57.1603 51.2433 46.9233 44.2231 41.905C43.9109 41.6818 43.8826 41.2188 44.1696 40.964C52.4115 33.6459 53.9329 24.7997 53.6416 20.6444C53.6174 20.3002 53.2854 20 52.9404 20H42.1334C41.8311 20 41.5725 20.238 41.5458 20.5391C40.884 28.0241 35.8766 32.2785 32.8133 33.8167C32.4527 33.9978 32.0491 33.724 32.0491 33.3206V20.571C32.0491 20.2557 31.7934 20 31.478 20Z" fill="white"/>
<path fill-rule="evenodd" clip-rule="evenodd" d="M23.9973 54.3772C29.0409 54.3772 33.2358 58.0097 34.109 62.8012C34.1279 62.9051 34.0475 63 33.9419 63H32.9212C32.8391 63 32.7688 62.9417 32.7518 62.8614C32.3423 60.929 31.2603 59.3268 30.4347 58.4393C30.2723 58.2648 30.0135 58.2231 29.8164 58.3571C28.6412 59.1563 27.5437 61.0569 27.7488 62.7976C27.7613 62.9035 27.6808 63 27.5741 63H26.2665C26.2129 63 26.1627 62.9747 26.129 62.9331C25.6265 62.3121 24.8584 61.915 23.9973 61.915C23.1363 61.915 22.3681 62.3121 21.8656 62.9331C21.8319 62.9747 21.7817 63 21.7282 63H20.6282C20.2812 63 20 62.7188 20 62.3719V58.6667C20 58.4867 20.2657 58.4151 20.3696 58.5621C21.916 60.7487 25.551 62.4267 27.9109 57.3923C28.029 57.1403 27.9377 56.8347 27.6931 56.7018C24.856 55.1612 21.6144 55.9976 20.0088 56.7659C20.0047 56.7678 20 56.7649 20 56.7604V55.2969C20 55.2281 20.0412 55.1658 20.1049 55.1397C21.3055 54.6481 22.6198 54.3772 23.9973 54.3772ZM21.656 61.0013C21.3722 61.0013 21.1421 61.2315 21.1421 61.5153C21.1421 61.7991 21.3722 62.0292 21.656 62.0292C21.9399 62.0292 22.17 61.7991 22.17 61.5153C22.17 61.2315 21.9399 61.0013 21.656 61.0013ZM26.3386 61.0013C26.0548 61.0013 25.8247 61.2315 25.8247 61.5153C25.8247 61.7991 26.0548 62.0292 26.3386 62.0292C26.6224 62.0292 26.8525 61.7991 26.8526 61.5153C26.8526 61.2315 26.6224 61.0013 26.3386 61.0013Z" fill="url(#paint1_linear_833_3586)"/>
<path fill-rule="evenodd" clip-rule="evenodd" d="M23.9973 54.3772C29.0409 54.3772 33.2358 58.0097 34.109 62.8012C34.1279 62.9051 34.0475 63 33.9419 63H32.9212C32.8391 63 32.7688 62.9417 32.7518 62.8614C32.3423 60.929 31.2603 59.3268 30.4347 58.4393C30.2723 58.2648 30.0135 58.2231 29.8164 58.3571C28.6412 59.1563 27.5437 61.0569 27.7488 62.7976C27.7613 62.9035 27.6808 63 27.5741 63H26.2665C26.2129 63 26.1627 62.9747 26.129 62.9331C25.6265 62.3121 24.8584 61.915 23.9973 61.915C23.1363 61.915 22.3681 62.3121 21.8656 62.9331C21.8319 62.9747 21.7817 63 21.7282 63H20.6282C20.2812 63 20 62.7188 20 62.3719V58.6667C20 58.4867 20.2657 58.4151 20.3696 58.5621C21.916 60.7487 25.551 62.4267 27.9109 57.3923C28.029 57.1403 27.9377 56.8347 27.6931 56.7018C24.856 55.1612 21.6144 55.9976 20.0088 56.7659C20.0047 56.7678 20 56.7649 20 56.7604V55.2969C20 55.2281 20.0412 55.1658 20.1049 55.1397C21.3055 54.6481 22.6198 54.3772 23.9973 54.3772ZM21.656 61.0013C21.3722 61.0013 21.1421 61.2315 21.1421 61.5153C21.1421 61.7991 21.3722 62.0292 21.656 62.0292C21.9399 62.0292 22.17 61.7991 22.17 61.5153C22.17 61.2315 21.9399 61.0013 21.656 61.0013ZM26.3386 61.0013C26.0548 61.0013 25.8247 61.2315 25.8247 61.5153C25.8247 61.7991 26.0548 62.0292 26.3386 62.0292C26.6224 62.0292 26.8525 61.7991 26.8526 61.5153C26.8526 61.2315 26.6224 61.0013 26.3386 61.0013Z" fill="white"/>
<path d="M25.3719 49.3519C25.6337 49.3519 25.868 49.5143 25.96 49.7595L26.1349 50.2257C26.2784 50.6085 26.7898 50.6786 27.031 50.3485L27.2444 50.0564C27.4063 49.8349 27.6932 49.7441 27.9531 49.8321L30.7088 50.7654C30.9638 50.8518 31.1354 51.0912 31.1354 51.3604V51.7257C31.1354 52.1108 31.5434 52.3591 31.8855 52.1822L32.3602 51.9367C32.5908 51.8174 32.8711 51.8524 33.0654 52.0246L35.0184 53.7557C35.1977 53.9146 35.2711 54.1618 35.2074 54.3928L35.0667 54.9028C34.9707 55.2509 35.254 55.5867 35.6132 55.5508L36.1329 55.499C36.3773 55.4745 36.6136 55.5948 36.7376 55.8068L38.1258 58.1802C38.2565 58.4036 38.2367 58.6843 38.0761 58.8872L37.8035 59.2314C37.5671 59.5301 37.7264 59.9732 38.0988 60.053L38.4376 60.1256C38.6797 60.1775 38.8687 60.3668 38.9203 60.6091L39.2676 62.2411C39.3507 62.6319 39.0527 63 38.6532 63H35.4472C35.3621 63 35.2899 62.9371 35.2766 62.8531C34.4121 57.4021 29.6914 53.2351 23.9973 53.2351C22.6781 53.2351 21.4111 53.4589 20.2322 53.8704C20.1194 53.9098 20 53.827 20 53.7074V50.1102C20 50.0117 20.0391 49.9172 20.1087 49.8476C20.2662 49.6901 20.5259 49.7057 20.6635 49.8808L21.0306 50.3478C21.2862 50.6731 21.8017 50.5785 21.9252 50.1836L22.0474 49.7927C22.1294 49.5305 22.3722 49.3519 22.6469 49.3519H25.3719Z" fill="url(#paint2_linear_833_3586)"/>
<path d="M25.3719 49.3519C25.6337 49.3519 25.868 49.5143 25.96 49.7595L26.1349 50.2257C26.2784 50.6085 26.7898 50.6786 27.031 50.3485L27.2444 50.0564C27.4063 49.8349 27.6932 49.7441 27.9531 49.8321L30.7088 50.7654C30.9638 50.8518 31.1354 51.0912 31.1354 51.3604V51.7257C31.1354 52.1108 31.5434 52.3591 31.8855 52.1822L32.3602 51.9367C32.5908 51.8174 32.8711 51.8524 33.0654 52.0246L35.0184 53.7557C35.1977 53.9146 35.2711 54.1618 35.2074 54.3928L35.0667 54.9028C34.9707 55.2509 35.254 55.5867 35.6132 55.5508L36.1329 55.499C36.3773 55.4745 36.6136 55.5948 36.7376 55.8068L38.1258 58.1802C38.2565 58.4036 38.2367 58.6843 38.0761 58.8872L37.8035 59.2314C37.5671 59.5301 37.7264 59.9732 38.0988 60.053L38.4376 60.1256C38.6797 60.1775 38.8687 60.3668 38.9203 60.6091L39.2676 62.2411C39.3507 62.6319 39.0527 63 38.6532 63H35.4472C35.3621 63 35.2899 62.9371 35.2766 62.8531C34.4121 57.4021 29.6914 53.2351 23.9973 53.2351C22.6781 53.2351 21.4111 53.4589 20.2322 53.8704C20.1194 53.9098 20 53.827 20 53.7074V50.1102C20 50.0117 20.0391 49.9172 20.1087 49.8476C20.2662 49.6901 20.5259 49.7057 20.6635 49.8808L21.0306 50.3478C21.2862 50.6731 21.8017 50.5785 21.9252 50.1836L22.0474 49.7927C22.1294 49.5305 22.3722 49.3519 22.6469 49.3519H25.3719Z" fill="white"/>
<path d="M23.9973 62.4861C24.3645 62.4861 24.7104 62.5773 25.0135 62.7384C25.1544 62.8132 25.0918 63 24.9323 63H23.0624C22.9028 63 22.8402 62.8132 22.9811 62.7384C23.2843 62.5773 23.6301 62.4861 23.9973 62.4861Z" fill="url(#paint3_linear_833_3586)"/>
<path d="M23.9973 62.4861C24.3645 62.4861 24.7104 62.5773 25.0135 62.7384C25.1544 62.8132 25.0918 63 24.9323 63H23.0624C22.9028 63 22.8402 62.8132 22.9811 62.7384C23.2843 62.5773 23.6301 62.4861 23.9973 62.4861Z" fill="white"/>
</g>
<g filter="url(#filter1_dd_833_3586)">
<path d="M63.0001 54.6254C61.5715 54.6254 60.3308 54.334 59.2781 53.7513C58.2255 53.1685 57.4078 52.3414 56.825 51.2699C56.2423 50.1797 55.9509 48.9014 55.9509 47.4352C55.9509 46.3261 56.1107 45.3392 56.4303 44.4745C56.7686 43.591 57.248 42.8391 57.8683 42.2188C58.4886 41.5797 59.2311 41.1003 60.0958 40.7808C60.9605 40.4424 61.9286 40.2732 63.0001 40.2732C64.4287 40.2732 65.6694 40.5646 66.7221 41.1473C67.7748 41.73 68.5925 42.5572 69.1752 43.6286C69.7579 44.7001 70.0493 45.969 70.0493 47.4352C70.0493 48.5443 69.8801 49.5405 69.5417 50.424C69.2222 51.3075 68.7522 52.0688 68.1319 52.708C67.5116 53.3283 66.7691 53.8076 65.9044 54.146C65.0397 54.4656 64.0716 54.6254 63.0001 54.6254ZM63.0001 51.9467C63.6956 51.9467 64.3066 51.7775 64.8329 51.4391C65.3592 51.1008 65.7634 50.6026 66.0454 49.9447C66.3461 49.268 66.4965 48.4315 66.4965 47.4352C66.4965 45.9314 66.1769 44.8129 65.5378 44.0798C64.8987 43.3279 64.0528 42.9519 63.0001 42.9519C62.3046 42.9519 61.6937 43.1211 61.1673 43.4594C60.641 43.779 60.2274 44.2772 59.9267 44.9539C59.6447 45.6118 59.5037 46.4389 59.5037 47.4352C59.5037 48.9202 59.8233 50.0481 60.4624 50.8188C61.1015 51.5707 61.9474 51.9467 63.0001 51.9467Z" fill="#F4D7F0"/>
<path d="M63.0001 54.6254C61.5715 54.6254 60.3308 54.334 59.2781 53.7513C58.2255 53.1685 57.4078 52.3414 56.825 51.2699C56.2423 50.1797 55.9509 48.9014 55.9509 47.4352C55.9509 46.3261 56.1107 45.3392 56.4303 44.4745C56.7686 43.591 57.248 42.8391 57.8683 42.2188C58.4886 41.5797 59.2311 41.1003 60.0958 40.7808C60.9605 40.4424 61.9286 40.2732 63.0001 40.2732C64.4287 40.2732 65.6694 40.5646 66.7221 41.1473C67.7748 41.73 68.5925 42.5572 69.1752 43.6286C69.7579 44.7001 70.0493 45.969 70.0493 47.4352C70.0493 48.5443 69.8801 49.5405 69.5417 50.424C69.2222 51.3075 68.7522 52.0688 68.1319 52.708C67.5116 53.3283 66.7691 53.8076 65.9044 54.146C65.0397 54.4656 64.0716 54.6254 63.0001 54.6254ZM63.0001 51.9467C63.6956 51.9467 64.3066 51.7775 64.8329 51.4391C65.3592 51.1008 65.7634 50.6026 66.0454 49.9447C66.3461 49.268 66.4965 48.4315 66.4965 47.4352C66.4965 45.9314 66.1769 44.8129 65.5378 44.0798C64.8987 43.3279 64.0528 42.9519 63.0001 42.9519C62.3046 42.9519 61.6937 43.1211 61.1673 43.4594C60.641 43.779 60.2274 44.2772 59.9267 44.9539C59.6447 45.6118 59.5037 46.4389 59.5037 47.4352C59.5037 48.9202 59.8233 50.0481 60.4624 50.8188C61.1015 51.5707 61.9474 51.9467 63.0001 51.9467Z" fill="white"/>
<path d="M74.763 54.569C74.1991 54.569 73.7667 54.4186 73.4659 54.1178C73.1652 53.7982 73.0148 53.3471 73.0148 52.7644V42.106C73.0148 41.5233 73.1652 41.0815 73.4659 40.7808C73.7667 40.48 74.1897 40.3296 74.7348 40.3296C75.2799 40.3296 75.7029 40.48 76.0036 40.7808C76.3044 41.0815 76.4548 41.5233 76.4548 42.106V44.1644L76.1446 43.3185C76.5206 42.3786 77.1033 41.6361 77.8928 41.0909C78.6823 40.5458 79.6222 40.2732 80.7125 40.2732C81.8216 40.2732 82.7333 40.5364 83.4476 41.0627C84.1619 41.5891 84.66 42.3974 84.942 43.4876H84.5473C84.9232 42.4914 85.5435 41.7113 86.4082 41.1473C87.2729 40.5646 88.2692 40.2732 89.3971 40.2732C90.4498 40.2732 91.3145 40.48 91.9912 40.8935C92.6867 41.3071 93.2036 41.9368 93.542 42.7827C93.8804 43.6098 94.0495 44.6625 94.0495 45.9408V52.7644C94.0495 53.3471 93.8898 53.7982 93.5702 54.1178C93.2694 54.4186 92.8371 54.569 92.2732 54.569C91.7092 54.569 91.2769 54.4186 90.9761 54.1178C90.6753 53.7982 90.525 53.3471 90.525 52.7644V46.0817C90.525 45.0291 90.3464 44.2584 89.9892 43.7696C89.6509 43.2809 89.0681 43.0365 88.241 43.0365C87.3199 43.0365 86.5962 43.3655 86.0699 44.0234C85.5435 44.6625 85.2804 45.5554 85.2804 46.7021V52.7644C85.2804 53.3471 85.13 53.7982 84.8292 54.1178C84.5285 54.4186 84.0961 54.569 83.5322 54.569C82.9682 54.569 82.5265 54.4186 82.2069 54.1178C81.9062 53.7982 81.7558 53.3471 81.7558 52.7644V46.0817C81.7558 45.0291 81.5772 44.2584 81.22 43.7696C80.8817 43.2809 80.3083 43.0365 79.5 43.0365C78.5789 43.0365 77.8552 43.3655 77.3289 44.0234C76.8026 44.6625 76.5394 45.5554 76.5394 46.7021V52.7644C76.5394 53.9674 75.9473 54.569 74.763 54.569Z" fill="#F4D7F0"/>
<path d="M74.763 54.569C74.1991 54.569 73.7667 54.4186 73.4659 54.1178C73.1652 53.7982 73.0148 53.3471 73.0148 52.7644V42.106C73.0148 41.5233 73.1652 41.0815 73.4659 40.7808C73.7667 40.48 74.1897 40.3296 74.7348 40.3296C75.2799 40.3296 75.7029 40.48 76.0036 40.7808C76.3044 41.0815 76.4548 41.5233 76.4548 42.106V44.1644L76.1446 43.3185C76.5206 42.3786 77.1033 41.6361 77.8928 41.0909C78.6823 40.5458 79.6222 40.2732 80.7125 40.2732C81.8216 40.2732 82.7333 40.5364 83.4476 41.0627C84.1619 41.5891 84.66 42.3974 84.942 43.4876H84.5473C84.9232 42.4914 85.5435 41.7113 86.4082 41.1473C87.2729 40.5646 88.2692 40.2732 89.3971 40.2732C90.4498 40.2732 91.3145 40.48 91.9912 40.8935C92.6867 41.3071 93.2036 41.9368 93.542 42.7827C93.8804 43.6098 94.0495 44.6625 94.0495 45.9408V52.7644C94.0495 53.3471 93.8898 53.7982 93.5702 54.1178C93.2694 54.4186 92.8371 54.569 92.2732 54.569C91.7092 54.569 91.2769 54.4186 90.9761 54.1178C90.6753 53.7982 90.525 53.3471 90.525 52.7644V46.0817C90.525 45.0291 90.3464 44.2584 89.9892 43.7696C89.6509 43.2809 89.0681 43.0365 88.241 43.0365C87.3199 43.0365 86.5962 43.3655 86.0699 44.0234C85.5435 44.6625 85.2804 45.5554 85.2804 46.7021V52.7644C85.2804 53.3471 85.13 53.7982 84.8292 54.1178C84.5285 54.4186 84.0961 54.569 83.5322 54.569C82.9682 54.569 82.5265 54.4186 82.2069 54.1178C81.9062 53.7982 81.7558 53.3471 81.7558 52.7644V46.0817C81.7558 45.0291 81.5772 44.2584 81.22 43.7696C80.8817 43.2809 80.3083 43.0365 79.5 43.0365C78.5789 43.0365 77.8552 43.3655 77.3289 44.0234C76.8026 44.6625 76.5394 45.5554 76.5394 46.7021V52.7644C76.5394 53.9674 75.9473 54.569 74.763 54.569Z" fill="white"/>
<path d="M101.044 59.6444C100.631 59.6444 100.292 59.5316 100.029 59.306C99.7661 59.0992 99.6063 58.8173 99.5499 58.4601C99.5123 58.1029 99.5781 57.727 99.7473 57.3322L101.665 53.0745V54.5408L96.5328 42.6699C96.3637 42.2564 96.3073 41.871 96.3637 41.5139C96.4201 41.1567 96.5892 40.8747 96.8712 40.668C97.172 40.4424 97.5761 40.3296 98.0837 40.3296C98.516 40.3296 98.8638 40.433 99.1269 40.6398C99.3901 40.8278 99.6251 41.1943 99.8319 41.7394L103.638 51.2417H102.793L106.684 41.7113C106.89 41.1849 107.135 40.8278 107.417 40.6398C107.699 40.433 108.075 40.3296 108.545 40.3296C108.958 40.3296 109.287 40.4424 109.532 40.668C109.776 40.8747 109.926 41.1567 109.983 41.5139C110.039 41.8522 109.973 42.2282 109.785 42.6417L102.933 58.2909C102.689 58.8173 102.426 59.1744 102.144 59.3624C101.862 59.5504 101.495 59.6444 101.044 59.6444Z" fill="#F4D7F0"/>
<path d="M101.044 59.6444C100.631 59.6444 100.292 59.5316 100.029 59.306C99.7661 59.0992 99.6063 58.8173 99.5499 58.4601C99.5123 58.1029 99.5781 57.727 99.7473 57.3322L101.665 53.0745V54.5408L96.5328 42.6699C96.3637 42.2564 96.3073 41.871 96.3637 41.5139C96.4201 41.1567 96.5892 40.8747 96.8712 40.668C97.172 40.4424 97.5761 40.3296 98.0837 40.3296C98.516 40.3296 98.8638 40.433 99.1269 40.6398C99.3901 40.8278 99.6251 41.1943 99.8319 41.7394L103.638 51.2417H102.793L106.684 41.7113C106.89 41.1849 107.135 40.8278 107.417 40.6398C107.699 40.433 108.075 40.3296 108.545 40.3296C108.958 40.3296 109.287 40.4424 109.532 40.668C109.776 40.8747 109.926 41.1567 109.983 41.5139C110.039 41.8522 109.973 42.2282 109.785 42.6417L102.933 58.2909C102.689 58.8173 102.426 59.1744 102.144 59.3624C101.862 59.5504 101.495 59.6444 101.044 59.6444Z" fill="white"/>
<path d="M117.381 54.6254C116.234 54.6254 115.285 54.4186 114.533 54.005C113.781 53.5727 113.217 52.9335 112.841 52.0876C112.484 51.2417 112.305 50.1891 112.305 48.9296V42.106C112.305 41.5045 112.456 41.0627 112.756 40.7808C113.057 40.48 113.489 40.3296 114.053 40.3296C114.617 40.3296 115.05 40.48 115.35 40.7808C115.67 41.0627 115.83 41.5045 115.83 42.106V48.986C115.83 49.9635 116.027 50.6872 116.422 51.1572C116.817 51.6271 117.446 51.8621 118.311 51.8621C119.251 51.8621 120.022 51.5425 120.623 50.9034C121.225 50.2455 121.525 49.3808 121.525 48.3093V42.106C121.525 41.5045 121.676 41.0627 121.977 40.7808C122.277 40.48 122.71 40.3296 123.274 40.3296C123.838 40.3296 124.27 40.48 124.571 40.7808C124.89 41.0627 125.05 41.5045 125.05 42.106V52.7644C125.05 53.9674 124.477 54.569 123.33 54.569C122.785 54.569 122.362 54.4186 122.061 54.1178C121.76 53.7982 121.61 53.3471 121.61 52.7644V50.6214L122.005 51.4673C121.61 52.4824 121.009 53.2625 120.2 53.8076C119.411 54.3528 118.471 54.6254 117.381 54.6254Z" fill="#F4D7F0"/>
<path d="M117.381 54.6254C116.234 54.6254 115.285 54.4186 114.533 54.005C113.781 53.5727 113.217 52.9335 112.841 52.0876C112.484 51.2417 112.305 50.1891 112.305 48.9296V42.106C112.305 41.5045 112.456 41.0627 112.756 40.7808C113.057 40.48 113.489 40.3296 114.053 40.3296C114.617 40.3296 115.05 40.48 115.35 40.7808C115.67 41.0627 115.83 41.5045 115.83 42.106V48.986C115.83 49.9635 116.027 50.6872 116.422 51.1572C116.817 51.6271 117.446 51.8621 118.311 51.8621C119.251 51.8621 120.022 51.5425 120.623 50.9034C121.225 50.2455 121.525 49.3808 121.525 48.3093V42.106C121.525 41.5045 121.676 41.0627 121.977 40.7808C122.277 40.48 122.71 40.3296 123.274 40.3296C123.838 40.3296 124.27 40.48 124.571 40.7808C124.89 41.0627 125.05 41.5045 125.05 42.106V52.7644C125.05 53.9674 124.477 54.569 123.33 54.569C122.785 54.569 122.362 54.4186 122.061 54.1178C121.76 53.7982 121.61 53.3471 121.61 52.7644V50.6214L122.005 51.4673C121.61 52.4824 121.009 53.2625 120.2 53.8076C119.411 54.3528 118.471 54.6254 117.381 54.6254Z" fill="white"/>
<path d="M135.035 54.6254C133.813 54.6254 132.788 54.4186 131.961 54.005C131.153 53.5915 130.551 52.9899 130.157 52.2004C129.762 51.3921 129.564 50.3958 129.564 49.2116V43.2057H128.098C127.647 43.2057 127.299 43.0929 127.055 42.8673C126.811 42.6229 126.688 42.294 126.688 41.8804C126.688 41.4481 126.811 41.1191 127.055 40.8935C127.299 40.668 127.647 40.5552 128.098 40.5552H129.564V37.9893C129.564 37.4066 129.715 36.9648 130.016 36.664C130.335 36.3633 130.777 36.2129 131.341 36.2129C131.905 36.2129 132.337 36.3633 132.638 36.664C132.939 36.9648 133.089 37.4066 133.089 37.9893V40.5552H136.078C136.529 40.5552 136.877 40.668 137.121 40.8935C137.366 41.1191 137.488 41.4481 137.488 41.8804C137.488 42.294 137.366 42.6229 137.121 42.8673C136.877 43.0929 136.529 43.2057 136.078 43.2057H133.089V49.0142C133.089 49.9165 133.286 50.5932 133.681 51.0444C134.076 51.4955 134.715 51.7211 135.599 51.7211C135.918 51.7211 136.2 51.6929 136.444 51.6365C136.689 51.5801 136.905 51.5425 137.093 51.5237C137.319 51.5049 137.507 51.5801 137.657 51.7493C137.807 51.8997 137.882 52.2192 137.882 52.708C137.882 53.0839 137.817 53.4223 137.685 53.7231C137.572 54.005 137.356 54.2024 137.037 54.3152C136.792 54.3904 136.473 54.4562 136.078 54.5126C135.683 54.5878 135.335 54.6254 135.035 54.6254Z" fill="#F4D7F0"/>
<path d="M135.035 54.6254C133.813 54.6254 132.788 54.4186 131.961 54.005C131.153 53.5915 130.551 52.9899 130.157 52.2004C129.762 51.3921 129.564 50.3958 129.564 49.2116V43.2057H128.098C127.647 43.2057 127.299 43.0929 127.055 42.8673C126.811 42.6229 126.688 42.294 126.688 41.8804C126.688 41.4481 126.811 41.1191 127.055 40.8935C127.299 40.668 127.647 40.5552 128.098 40.5552H129.564V37.9893C129.564 37.4066 129.715 36.9648 130.016 36.664C130.335 36.3633 130.777 36.2129 131.341 36.2129C131.905 36.2129 132.337 36.3633 132.638 36.664C132.939 36.9648 133.089 37.4066 133.089 37.9893V40.5552H136.078C136.529 40.5552 136.877 40.668 137.121 40.8935C137.366 41.1191 137.488 41.4481 137.488 41.8804C137.488 42.294 137.366 42.6229 137.121 42.8673C136.877 43.0929 136.529 43.2057 136.078 43.2057H133.089V49.0142C133.089 49.9165 133.286 50.5932 133.681 51.0444C134.076 51.4955 134.715 51.7211 135.599 51.7211C135.918 51.7211 136.2 51.6929 136.444 51.6365C136.689 51.5801 136.905 51.5425 137.093 51.5237C137.319 51.5049 137.507 51.5801 137.657 51.7493C137.807 51.8997 137.882 52.2192 137.882 52.708C137.882 53.0839 137.817 53.4223 137.685 53.7231C137.572 54.005 137.356 54.2024 137.037 54.3152C136.792 54.3904 136.473 54.4562 136.078 54.5126C135.683 54.5878 135.335 54.6254 135.035 54.6254Z" fill="white"/>
</g>
<defs>
<filter id="filter0_dd_833_3586" x="0" y="0" width="73.8362" height="83" filterUnits="userSpaceOnUse" color-interpolation-filters="sRGB">
<feFlood flood-opacity="0" result="BackgroundImageFix"/>
<feColorMatrix in="SourceAlpha" type="matrix" values="0 0 0 0 0 0 0 0 0 0 0 0 0 0 0 0 0 0 127 0" result="hardAlpha"/>
<feOffset/>
<feGaussianBlur stdDeviation="10"/>
<feComposite in2="hardAlpha" operator="out"/>
<feColorMatrix type="matrix" values="0 0 0 0 0.556863 0 0 0 0 0.298039 0 0 0 0 0.713726 0 0 0 0.25 0"/>
<feBlend mode="normal" in2="BackgroundImageFix" result="effect1_dropShadow_833_3586"/>
<feColorMatrix in="SourceAlpha" type="matrix" values="0 0 0 0 0 0 0 0 0 0 0 0 0 0 0 0 0 0 127 0" result="hardAlpha"/>
<feOffset dx="1" dy="1"/>
<feGaussianBlur stdDeviation="0.5"/>
<feComposite in2="hardAlpha" operator="out"/>
<feColorMatrix type="matrix" values="0 0 0 0 0.556863 0 0 0 0 0.298039 0 0 0 0 0.713726 0 0 0 0.5 0"/>
<feBlend mode="normal" in2="effect1_dropShadow_833_3586" result="effect2_dropShadow_833_3586"/>
<feBlend mode="normal" in="SourceGraphic" in2="effect2_dropShadow_833_3586" result="shape"/>
</filter>
<filter id="filter1_dd_833_3586" x="35.9509" y="16.2129" width="121.932" height="63.4316" filterUnits="userSpaceOnUse" color-interpolation-filters="sRGB">
<feFlood flood-opacity="0" result="BackgroundImageFix"/>
<feColorMatrix in="SourceAlpha" type="matrix" values="0 0 0 0 0 0 0 0 0 0 0 0 0 0 0 0 0 0 127 0" result="hardAlpha"/>
<feOffset/>
<feGaussianBlur stdDeviation="10"/>
<feComposite in2="hardAlpha" operator="out"/>
<feColorMatrix type="matrix" values="0 0 0 0 0.556863 0 0 0 0 0.298039 0 0 0 0 0.713726 0 0 0 0.25 0"/>
<feBlend mode="normal" in2="BackgroundImageFix" result="effect1_dropShadow_833_3586"/>
<feColorMatrix in="SourceAlpha" type="matrix" values="0 0 0 0 0 0 0 0 0 0 0 0 0 0 0 0 0 0 127 0" result="hardAlpha"/>
<feOffset dx="1" dy="1"/>
<feGaussianBlur stdDeviation="0.5"/>
<feComposite in2="hardAlpha" operator="out"/>
<feColorMatrix type="matrix" values="0 0 0 0 0.556863 0 0 0 0 0.298039 0 0 0 0 0.713726 0 0 0 0.5 0"/>
<feBlend mode="normal" in2="effect1_dropShadow_833_3586" result="effect2_dropShadow_833_3586"/>
<feBlend mode="normal" in="SourceGraphic" in2="effect2_dropShadow_833_3586" result="shape"/>
</filter>
<linearGradient id="paint0_linear_833_3586" x1="53.8361" y1="63" x2="-4.82832" y2="-12.1687" gradientUnits="userSpaceOnUse">
<stop stop-color="#F4D7F0"/>
<stop offset="1" stop-color="#F4F4F4"/>
</linearGradient>
<linearGradient id="paint1_linear_833_3586" x1="53.8361" y1="63" x2="-4.82832" y2="-12.1687" gradientUnits="userSpaceOnUse">
<stop stop-color="#F4D7F0"/>
<stop offset="1" stop-color="#F4F4F4"/>
</linearGradient>
<linearGradient id="paint2_linear_833_3586" x1="53.8361" y1="63" x2="-4.82832" y2="-12.1687" gradientUnits="userSpaceOnUse">
<stop stop-color="#F4D7F0"/>
<stop offset="1" stop-color="#F4F4F4"/>
</linearGradient>
<linearGradient id="paint3_linear_833_3586" x1="53.8361" y1="63" x2="-4.82832" y2="-12.1687" gradientUnits="userSpaceOnUse">
<stop stop-color="#F4D7F0"/>
<stop offset="1" stop-color="#F4F4F4"/>
</linearGradient>
</defs>
</svg>
